<?xml version="1.0" encoding="utf-8"?><svg xmlns="http://www.w3.org/2000/svg" xmlns:xlink="http://www.w3.org/1999/xlink"><symbol viewBox="0 0 19 15" id="arrow_icon" xmlns="http://www.w3.org/2000/svg"><path d="M19 8h-.27l-7.015 7.015-.73-.73L17.27 8H0V7h17.27L10.986.715l.73-.73L18.73 7H19v.27l.015.015-.015.014v.402l.015.014L19 7.73z"/></symbol><symbol viewBox="0 0 NaN NaN" id="facebook" xmlns="http://www.w3.org/2000/svg"><path d="M89.584 155.139V84.378h23.742l3.562-27.585H89.584V39.184c0-7.984 2.208-13.425 13.67-13.425l14.595-.006V1.08C115.325.752 106.661 0 96.577 0 75.52 0 61.104 12.853 61.104 36.452v20.341H37.29v27.585h23.814v70.761h28.48z"/></symbol><symbol viewBox="0 0 555.562 555.562" id="google-plus" xmlns="http://www.w3.org/2000/svg"><path d="M543.312 85.472H482.32c-6.762 0-12.24-5.477-12.24-12.24V12.24c0-6.763-5.477-12.24-12.24-12.24h-18.256c-6.762 0-12.238 5.478-12.238 12.24v60.992c0 6.763-5.479 12.24-12.24 12.24h-60.992c-6.764 0-12.24 5.478-12.24 12.24v18.256c0 6.763 5.477 12.24 12.24 12.24h60.992c6.762 0 12.24 5.478 12.24 12.24v60.992c0 6.763 5.477 12.24 12.238 12.24h18.256c6.764 0 12.24-5.477 12.24-12.24v-60.992c0-6.762 5.479-12.24 12.24-12.24h60.992c6.764 0 12.24-5.478 12.24-12.24V97.712c0-6.763-5.476-12.24-12.24-12.24z"/><path d="M35.719 521.669c10.459 7.681 22.534 14.131 36.225 19.37 13.69 5.22 27.265 8.953 40.729 11.181 13.464 2.222 26.763 3.342 39.896 3.342 59.646 0 106.39-14.578 140.228-43.733 31.156-27.161 46.744-58.538 46.744-94.15 0-12.681-1.836-24.541-5.508-35.558-3.672-11.016-8.465-20.478-14.357-28.378a176.302 176.302 0 00-19.529-22.032c-7.123-6.787-14.246-12.962-21.365-18.525-7.124-5.562-13.635-10.899-19.529-16.028-5.9-5.116-10.686-10.459-14.357-16.028-3.672-5.557-5.508-11.236-5.508-17.025 0-8.017 2.559-15.526 7.681-22.534 5.117-7.008 11.353-13.801 18.697-20.368 7.344-6.561 14.688-13.739 22.038-21.53 7.344-7.791 13.574-18.084 18.697-30.881 5.115-12.803 7.68-27.436 7.68-43.905 0-19.584-4.338-38.397-13.023-56.426-6.775-14.07-15.715-25.698-26.824-34.884-5.208-4.309-4.418-7.185 2.338-7.185h20.593c6.764 0 16.971-2.767 22.805-6.182l23.947-14.015c5.832-3.415 5.086-6.181-1.678-6.181H208.677c-20.698 0-41.518 2.228-62.436 6.677-30.943 6.897-56.978 22.656-78.122 47.247-21.15 24.596-31.72 52.473-31.72 83.63 0 32.944 11.854 60.325 35.557 82.136 23.703 21.812 52.136 32.718 85.301 32.718 3.586 0 7.484-.159 11.708-.478 6.457-.489 11.236.447 10.581 2.43a108.254 108.254 0 01-1.261 3.562c-1.114 3.005-2.001 5.398-2.668 7.179s-1.224 3.954-1.671 6.505a44.99 44.99 0 00-.667 7.846c0 12.001 4.749 25.263 14.26 39.792 3.702 5.655 1.627 10.086-5.117 10.465a392.431 392.431 0 00-37.852 3.997c-16.475 2.563-33.721 6.572-51.75 12.025-18.03 5.453-34.168 13.354-48.409 23.703-14.248 10.349-24.933 22.649-32.051 36.892C4.123 422.82.01 437.839.01 451.407c0 14.92 3.342 28.434 10.019 40.569 6.663 12.11 15.225 22.012 25.69 29.693zm122.865-297.977c-10.239-5.784-18.923-13.299-26.041-22.534-7.124-9.235-13.354-19.639-18.697-31.218-5.343-11.573-9.296-23.152-11.854-34.725-2.559-11.567-3.837-22.589-3.837-33.054 0-21.371 5.679-39.731 17.026-55.086C126.534 31.72 142.556 24.04 163.26 24.04c14.688 0 27.987 4.565 39.896 13.696 11.903 9.131 21.249 20.698 28.042 34.719 6.787 14.027 12.02 28.55 15.692 43.575 3.672 15.024 5.508 29.21 5.508 42.57 0 16.879-2.785 31.225-8.348 43.042-2.876 6.114-9.29 15.184-14.572 19.395-9.492 7.564-22.332 11.346-38.513 11.346-11.346-.007-22.148-2.895-32.381-8.691zM70.775 400.315c6.01-10.459 13.69-18.807 23.036-25.043 9.345-6.23 20.251-11.353 32.717-15.355 12.46-4.009 24.48-6.787 36.059-8.348 11.573-1.561 23.373-2.344 35.392-2.344 3.109 0 5.894.043 8.36.122 4.615.153 10.625 2.1 13.434 4.039 1.426.985 3.121 2.161 5.085 3.52 5.453 3.788 9.125 6.347 11.016 7.675 1.885 1.334 5.343 3.898 10.349 7.681 5.006 3.788 8.568 6.628 10.686 8.519 2.111 1.892 5.177 4.73 9.18 8.513 4.009 3.788 6.953 7.068 8.85 9.854a957.132 957.132 0 007.013 10.178c2.779 4.009 4.725 7.846 5.846 11.523a185.734 185.734 0 013.17 12.02c1.004 4.34 1.506 8.85 1.506 13.514 0 14.026-3.066 26.267-9.18 36.726-6.126 10.459-14.413 18.642-24.873 24.548-10.465 5.894-21.646 10.232-33.556 13.017-11.91 2.785-24.431 4.174-37.559 4.174-14.247 0-28.378-1.671-42.399-5.006a168.938 168.938 0 01-40.227-15.189c-12.803-6.794-23.152-16.139-31.053-28.048-7.901-11.91-11.854-25.423-11.854-40.563-.013-13.364 2.992-25.262 9.002-35.727z"/></symbol><symbol viewBox="0 0 24 21" id="heart" xmlns="http://www.w3.org/2000/svg"><path d="M22.207 10.297L11.98 21 1.756 10.297c-2.342-2.364-2.342-6.197 0-8.562a5.956 5.956 0 018.48 0l1.745 2.14 1.746-2.14a5.956 5.956 0 018.48 0c2.342 2.365 2.342 6.198 0 8.562zm-6.49-8.212l-3.74 3.305-2.74-3.305C7.8.62 4.071 0 2.035 3.085.906 4.797.6 6.925 2.036 8.39L11.977 19l9.941-10.61a3.805 3.805 0 000-5.305c-1.436-1.465-4.764-2.465-6.2-1z"/></symbol><symbol viewBox="0 0 93.06 93.06" id="linkedin" xmlns="http://www.w3.org/2000/svg"><path d="M11.185.08C5.004.08.001 5.092 0 11.259c0 6.173 5.003 11.184 11.186 11.184 6.166 0 11.176-5.011 11.176-11.184C22.362 5.091 17.351.08 11.185.08zM1.538 30.926h19.287V92.98H1.538zm68.387-1.543c-9.382 0-15.673 5.144-18.248 10.022h-.258v-8.479H32.92v62.053h19.27V62.281c0-8.093 1.541-15.932 11.575-15.932 9.89 0 10.022 9.256 10.022 16.451v30.178H93.06V58.942c0-16.707-3.605-29.559-23.135-29.559z"/></symbol><symbol viewBox="0 0 24 24" id="twitter" xmlns="http://www.w3.org/2000/svg"><path d="M24 4.3c-.898.4-1.8.7-2.8.802 1-.602 1.8-1.602 2.198-2.704-1 .602-2 1-3.097 1.204C19.3 2.602 18 2 16.6 2a4.907 4.907 0 00-4.9 4.898c0 .403 0 .801.102 1.102C7.7 7.8 4.102 5.898 1.7 2.898c-.5.704-.7 1.602-.7 2.5 0 1.704.898 3.204 2.2 4.102-.802-.102-1.598-.3-2.2-.602V9c0 2.398 1.7 4.398 3.898 4.8-.398.098-.796.2-1.296.2-.301 0-.602 0-.903-.102.602 2 2.403 3.403 4.602 3.403-1.7 1.3-3.801 2.097-6.102 2.097-.398 0-.8 0-1.199-.097C2.2 20.699 4.8 21.5 7.5 21.5c9.102 0 14-7.5 14-14v-.602c1-.699 1.8-1.597 2.5-2.597"/></symbol></svg>